<?xml version="1.0" encoding="UTF-8" standalone="no"?>
<!DOCTYPE svg PUBLIC "-//W3C//DTD SVG 1.1//EN"
 "http://www.w3.org/Graphics/SVG/1.1/DTD/svg11.dtd">
<!-- Generated by graphviz version 2.40.1 (20161225.0304)
 -->
<!-- Title: DFA Pages: 1 -->
<svg width="366pt" height="268pt"
 viewBox="0.00 0.00 365.83 267.64" xmlns="http://www.w3.org/2000/svg" xmlns:xlink="http://www.w3.org/1999/xlink">
<g id="graph0" class="graph" transform="scale(1 1) rotate(0) translate(4 263.6363)">
<title>DFA</title>
<polygon fill="#ffffff" stroke="transparent" points="-4,4 -4,-263.6363 361.8326,-263.6363 361.8326,4 -4,4"/>
<!-- start -->
<g id="node1" class="node">
<title>start</title>
<ellipse fill="#000000" stroke="#000000" cx="1.8" cy="-89.8363" rx="1.8" ry="1.8"/>
</g>
<!-- S -->
<g id="node2" class="node">
<title>S</title>
<ellipse fill="#d3d3d3" stroke="#d3d3d3" cx="62.6" cy="-89.8363" rx="18" ry="18"/>
<ellipse fill="none" stroke="#d3d3d3" cx="62.6" cy="-89.8363" rx="22" ry="22"/>
<text text-anchor="middle" x="62.6" y="-85.6363" font-family="Times,serif" font-size="14.00" fill="#000000">S</text>
</g>
<!-- start&#45;&gt;S -->
<g id="edge1" class="edge">
<title>start&#45;&gt;S</title>
<path fill="none" stroke="#000000" d="M3.8229,-89.8363C8.2086,-89.8363 19.1055,-89.8363 30.3421,-89.8363"/>
<polygon fill="#000000" stroke="#000000" points="30.58,-93.3364 40.58,-89.8363 30.5799,-86.3364 30.58,-93.3364"/>
</g>
<!-- Q3 -->
<g id="node3" class="node">
<title>Q3</title>
<ellipse fill="none" stroke="#000000" cx="149.6509" cy="-175.8363" rx="22.6738" ry="22.6738"/>
<text text-anchor="middle" x="149.6509" y="-171.6363" font-family="Times,serif" font-size="14.00" fill="#000000">Q3</text>
</g>
<!-- S&#45;&gt;Q3 -->
<g id="edge2" class="edge">
<title>S&#45;&gt;Q3</title>
<path fill="none" stroke="#000000" d="M78.5665,-105.6101C91.7746,-118.6587 110.7345,-137.3898 125.7518,-152.2258"/>
<polygon fill="#000000" stroke="#000000" points="123.6205,-155.0401 133.1942,-159.5783 128.5401,-150.0604 123.6205,-155.0401"/>
<text text-anchor="middle" x="105.7073" y="-140.0363" font-family="Times,serif" font-size="14.00" fill="#000000">a</text>
</g>
<!-- Q2 -->
<g id="node4" class="node">
<title>Q2</title>
<ellipse fill="none" stroke="#000000" cx="334.9962" cy="-105.8363" rx="22.6738" ry="22.6738"/>
<text text-anchor="middle" x="334.9962" y="-101.6363" font-family="Times,serif" font-size="14.00" fill="#000000">Q2</text>
</g>
<!-- S&#45;&gt;Q2 -->
<g id="edge3" class="edge">
<title>S&#45;&gt;Q2</title>
<path fill="none" stroke="#000000" d="M84.8913,-91.1457C132.7585,-93.9573 245.5868,-100.5846 301.8676,-103.8904"/>
<polygon fill="#000000" stroke="#000000" points="301.8241,-107.3938 312.0121,-104.4863 302.2346,-100.4059 301.8241,-107.3938"/>
<text text-anchor="middle" x="193.9873" y="-102.0363" font-family="Times,serif" font-size="14.00" fill="#000000">b</text>
</g>
<!-- Q1 -->
<g id="node5" class="node">
<title>Q1</title>
<ellipse fill="#d3d3d3" stroke="#d3d3d3" cx="242.3236" cy="-26.8363" rx="22.6979" ry="22.6979"/>
<ellipse fill="none" stroke="#d3d3d3" cx="242.3236" cy="-26.8363" rx="26.6736" ry="26.6736"/>
<text text-anchor="middle" x="242.3236" y="-22.6363" font-family="Times,serif" font-size="14.00" fill="#000000">Q1</text>
</g>
<!-- S&#45;&gt;Q1 -->
<g id="edge4" class="edge">
<title>S&#45;&gt;Q1</title>
<path fill="none" stroke="#000000" d="M82.1664,-79.3454C94.6904,-72.9097 111.4215,-64.8224 126.8146,-59.0363 152.67,-49.3177 182.7521,-41.0236 205.7345,-35.288"/>
<polygon fill="#000000" stroke="#000000" points="206.8719,-38.6131 215.7537,-32.8369 205.2084,-31.8136 206.8719,-38.6131"/>
<text text-anchor="middle" x="149.6509" y="-64.0363" font-family="Times,serif" font-size="14.00" fill="#000000">c</text>
</g>
<!-- Q3&#45;&gt;Q2 -->
<g id="edge14" class="edge">
<title>Q3&#45;&gt;Q2</title>
<path fill="none" stroke="#000000" d="M162.4244,-194.7739C169.6491,-204.157 179.4413,-214.928 190.4873,-221.8363 229.5529,-246.2687 260.5297,-253.3335 294.1599,-221.8363 317.1693,-200.2863 327.2212,-165.005 331.6082,-139.0016"/>
<polygon fill="#000000" stroke="#000000" points="335.11,-139.2479 333.118,-128.842 328.186,-138.2189 335.11,-139.2479"/>
<text text-anchor="middle" x="242.3236" y="-247.0363" font-family="Times,serif" font-size="14.00" fill="#000000">a</text>
</g>
<!-- Q3&#45;&gt;Q2 -->
<g id="edge16" class="edge">
<title>Q3&#45;&gt;Q2</title>
<path fill="none" stroke="#000000" d="M172.2498,-181.1913C196.7184,-185.9855 236.6104,-190.8554 269.1599,-180.8363 291.5807,-173.935 308.7016,-153.3538 319.8568,-135.4937"/>
<polygon fill="#000000" stroke="#000000" points="323.0987,-136.8848 325.143,-126.489 317.062,-133.3409 323.0987,-136.8848"/>
<text text-anchor="middle" x="242.3236" y="-190.0363" font-family="Times,serif" font-size="14.00" fill="#000000">c</text>
</g>
<!-- Q0 -->
<g id="node6" class="node">
<title>Q0</title>
<ellipse fill="#d3d3d3" stroke="#d3d3d3" cx="242.3236" cy="-144.8363" rx="22.6979" ry="22.6979"/>
<ellipse fill="none" stroke="#d3d3d3" cx="242.3236" cy="-144.8363" rx="26.6736" ry="26.6736"/>
<text text-anchor="middle" x="242.3236" y="-140.6363" font-family="Times,serif" font-size="14.00" fill="#000000">Q0</text>
</g>
<!-- Q3&#45;&gt;Q0 -->
<g id="edge15" class="edge">
<title>Q3&#45;&gt;Q0</title>
<path fill="none" stroke="#000000" d="M171.6131,-168.4898C182.1507,-164.9648 195.0395,-160.6534 206.9132,-156.6815"/>
<polygon fill="#000000" stroke="#000000" points="208.2013,-159.9413 216.5745,-153.4497 205.9807,-153.3029 208.2013,-159.9413"/>
<text text-anchor="middle" x="193.9873" y="-166.0363" font-family="Times,serif" font-size="14.00" fill="#000000">b</text>
</g>
<!-- Q2&#45;&gt;Q2 -->
<g id="edge11" class="edge">
<title>Q2&#45;&gt;Q2</title>
<path fill="none" stroke="#000000" d="M332.2791,-128.5131C332.0567,-138.2964 332.9624,-146.6727 334.9962,-146.6727 336.2674,-146.6727 337.0979,-143.4007 337.4877,-138.5582"/>
<polygon fill="#000000" stroke="#000000" points="340.9878,-138.5892 337.7133,-128.5131 333.9895,-138.4319 340.9878,-138.5892"/>
<text text-anchor="middle" x="334.9962" y="-150.8727" font-family="Times,serif" font-size="14.00" fill="#000000">a</text>
</g>
<!-- Q2&#45;&gt;Q2 -->
<g id="edge12" class="edge">
<title>Q2&#45;&gt;Q2</title>
<path fill="none" stroke="#000000" d="M330.2378,-128.4791C328.3971,-146.3432 329.9832,-164.6727 334.9962,-164.6727 339.0302,-164.6727 340.8451,-152.8039 340.4411,-138.8595"/>
<polygon fill="#000000" stroke="#000000" points="343.9069,-138.2263 339.7547,-128.4791 336.9222,-138.6882 343.9069,-138.2263"/>
<text text-anchor="middle" x="334.9962" y="-168.8727" font-family="Times,serif" font-size="14.00" fill="#000000">b</text>
</g>
<!-- Q2&#45;&gt;Q2 -->
<g id="edge13" class="edge">
<title>Q2&#45;&gt;Q2</title>
<path fill="none" stroke="#000000" d="M328.9397,-127.8605C324.6414,-153.2556 326.6603,-182.6727 334.9962,-182.6727 342.2576,-182.6727 344.7256,-160.3509 342.4001,-137.8101"/>
<polygon fill="#000000" stroke="#000000" points="345.8631,-137.3003 341.0528,-127.8605 338.9264,-138.2397 345.8631,-137.3003"/>
<text text-anchor="middle" x="334.9962" y="-186.8727" font-family="Times,serif" font-size="14.00" fill="#000000">c</text>
</g>
<!-- Q1&#45;&gt;Q2 -->
<g id="edge8" class="edge">
<title>Q1&#45;&gt;Q2</title>
<path fill="none" stroke="#000000" d="M266.0458,-39.5543C275.2463,-44.9915 285.6041,-51.7624 294.1599,-59.0363 301.2458,-65.0606 308.1923,-72.3378 314.2892,-79.3399"/>
<polygon fill="#000000" stroke="#000000" points="311.9004,-81.9378 321.0134,-87.3419 317.2595,-77.4344 311.9004,-81.9378"/>
<text text-anchor="middle" x="290.6599" y="-64.0363" font-family="Times,serif" font-size="14.00" fill="#000000">a</text>
</g>
<!-- Q1&#45;&gt;Q2 -->
<g id="edge9" class="edge">
<title>Q1&#45;&gt;Q2</title>
<path fill="none" stroke="#000000" d="M269.2985,-26.0218C277.8464,-26.905 286.9407,-29.1413 294.1599,-34.0363 308.2777,-43.6089 318.0922,-59.7864 324.5545,-74.3645"/>
<polygon fill="#000000" stroke="#000000" points="321.3142,-75.6876 328.3286,-83.6279 327.7968,-73.0465 321.3142,-75.6876"/>
<text text-anchor="middle" x="290.6599" y="-39.0363" font-family="Times,serif" font-size="14.00" fill="#000000">b</text>
</g>
<!-- Q1&#45;&gt;Q2 -->
<g id="edge10" class="edge">
<title>Q1&#45;&gt;Q2</title>
<path fill="none" stroke="#000000" d="M264.4282,-11.4498C274.0962,-6.7255 285.2412,-4.1429 294.1599,-10.0363 315.2554,-23.9761 325.4893,-51.2758 330.4331,-73.1784"/>
<polygon fill="#000000" stroke="#000000" points="327.0236,-73.9782 332.4061,-83.1039 333.8893,-72.6134 327.0236,-73.9782"/>
<text text-anchor="middle" x="290.6599" y="-15.0363" font-family="Times,serif" font-size="14.00" fill="#000000">c</text>
</g>
<!-- Q0&#45;&gt;Q3 -->
<g id="edge5" class="edge">
<title>Q0&#45;&gt;Q3</title>
<path fill="none" stroke="#000000" d="M216.9256,-135.8107C208.3076,-134.0968 198.77,-133.7289 190.4873,-137.0363 183.2442,-139.9286 176.5509,-144.7842 170.7677,-150.0993"/>
<polygon fill="#000000" stroke="#000000" points="168.0085,-147.9127 163.4795,-157.4907 172.993,-152.8275 168.0085,-147.9127"/>
<text text-anchor="middle" x="193.9873" y="-142.0363" font-family="Times,serif" font-size="14.00" fill="#000000">a</text>
</g>
<!-- Q0&#45;&gt;Q2 -->
<g id="edge6" class="edge">
<title>Q0&#45;&gt;Q2</title>
<path fill="none" stroke="#000000" d="M269.1754,-145.9444C277.4434,-145.456 286.4049,-144.0495 294.1599,-140.8363 300.3869,-138.2563 306.3492,-134.3483 311.7009,-130.0664"/>
<polygon fill="#000000" stroke="#000000" points="314.3533,-132.3952 319.5584,-123.1671 309.7347,-127.1351 314.3533,-132.3952"/>
<text text-anchor="middle" x="290.6599" y="-148.0363" font-family="Times,serif" font-size="14.00" fill="#000000">b</text>
</g>
<!-- Q0&#45;&gt;Q2 -->
<g id="edge7" class="edge">
<title>Q0&#45;&gt;Q2</title>
<path fill="none" stroke="#000000" d="M265.5806,-130.7226C272.3863,-126.9384 279.9404,-123.0623 287.1599,-120.0363 292.126,-117.9548 297.5006,-116.047 302.7925,-114.3512"/>
<polygon fill="#000000" stroke="#000000" points="304.169,-117.5922 312.7381,-111.3616 302.1538,-110.8886 304.169,-117.5922"/>
<text text-anchor="middle" x="290.6599" y="-125.0363" font-family="Times,serif" font-size="14.00" fill="#000000">c</text>
</g>
</g>
</svg>
